<?xml version="1.0" standalone="no"?>
<!DOCTYPE svg PUBLIC "-//W3C//DTD SVG 20010904//EN"
 "http://www.w3.org/TR/2001/REC-SVG-20010904/DTD/svg10.dtd">
<svg version="1.0" xmlns="http://www.w3.org/2000/svg"
 width="109.000000pt" height="109.000000pt" viewBox="0 0 109.000000 109.000000"
 preserveAspectRatio="xMidYMid meet">
<metadata>
Created by potrace 1.14, written by Peter Selinger 2001-2017
</metadata>
<g transform="translate(0.000000,109.000000) scale(0.100000,-0.100000)"
fill="#000000" stroke="none">
<path d="M280 838 c-56 -38 -59 -53 -23 -90 l32 -32 24 22 c49 46 49 22 2 -53
-52 -81 -75 -140 -75 -193 0 -61 28 -106 74 -122 59 -19 97 0 166 85 33 40 73
85 90 99 33 28 78 34 98 14 21 -21 13 -35 -30 -52 -85 -33 -138 -101 -138
-177 0 -40 5 -52 31 -78 25 -26 38 -31 77 -31 29 0 59 8 79 20 35 21 76 93 87
153 7 35 9 37 46 37 l40 0 0 50 0 50 -39 0 c-36 0 -39 3 -55 43 -25 65 -56 89
-120 95 -75 6 -125 -25 -217 -133 -39 -47 -75 -85 -80 -85 -34 0 -17 67 43
165 22 37 45 83 50 102 11 42 -5 97 -35 118 -31 22 -89 19 -127 -7z m383 -465
c-22 -45 -47 -63 -64 -46 -18 18 3 59 43 83 40 24 46 13 21 -37z"/>
</g>
</svg>
